<?xml version="1.0" encoding="UTF-8"?>
<svg data-bbox="0 0 32 32" xmlns="http://www.w3.org/2000/svg" viewBox="0 0 32 32" data-type="ugc">
    <g>
        <path d="M12 1.64h-.006c-1.473 0-2.691.759-3.239 2h-.489c-1.271 0-2.478.425-3.398 1.199-.976.82-1.514 1.951-1.516 3.182-.001.995.526 2.097 1.025 2.791C2.154 11.582.643 13.445.64 15.5c-.003 2.046 1.507 3.91 3.734 4.687-.506.692-1.044 1.788-1.045 2.766-.003 2.426 2.215 4.403 4.947 4.408h.48c.543 1.238 1.764 1.998 3.244 2h.007c1.972 0 3.351-1.381 3.354-3.36V5c.002-1.975-1.379-3.357-3.361-3.36zm0 17a.64.64 0 1 1 .001-1.281A.64.64 0 0 1 12 18.64zm2.64-5h-2.28V7.305c.575-.159 1-.681 1-1.305 0-.75-.61-1.36-1.36-1.36s-1.36.61-1.36 1.36c0 .625.425 1.146 1 1.305v6.335H9.998c-.798 0-1.357.559-1.358 1.36v.64H6.305c-.159-.575-.681-1-1.305-1-.75 0-1.36.61-1.36 1.36s.61 1.36 1.36 1.36c.625 0 1.147-.426 1.305-1H8.64v5.834c-.575.159-1 .681-1 1.306 0 .75.61 1.36 1.36 1.36s1.36-.61 1.36-1.36c0-.625-.425-1.147-1-1.306V15c.001-.401.239-.641.639-.641h4.641v11.639c-.003 1.456-.908 2.46-2.28 2.61v-9.303c.575-.159 1-.681 1-1.306 0-.75-.61-1.36-1.36-1.36s-1.36.61-1.36 1.36c0 .625.425 1.147 1 1.306v9.31c-1.103-.114-1.951-.742-2.3-1.735a.36.36 0 0 0-.34-.24h-.724c-2.036-.003-4.23-1.413-4.228-3.686.002-.966.714-2.209 1.206-2.699a.36.36 0 0 0-.164-.604c-2.199-.566-3.733-2.273-3.73-4.151.003-1.876 1.522-3.573 3.695-4.141h2.64c.159.575.681 1 1.305 1A1.36 1.36 0 0 0 9 9.64c-.625 0-1.146.425-1.305 1H5.162c-.477-.541-1.092-1.691-1.091-2.618.002-1.016.449-1.95 1.261-2.632.779-.655 1.849-1.03 2.936-1.03H9a.36.36 0 0 0 .339-.239c.392-1.103 1.384-1.761 2.655-1.761h.005c1.583.003 2.644 1.063 2.641 2.64zm-2.64-7a.64.64 0 1 1 .001-1.281A.64.64 0 0 1 12 6.64zM9 22.86a.64.64 0 1 1-.001 1.281A.64.64 0 0 1 9 22.86zM5.64 16a.64.64 0 1 1-1.281-.001A.64.64 0 0 1 5.64 16zm2.72-5a.64.64 0 1 1 1.281.001A.64.64 0 0 1 8.36 11zm23 4.5c.002-2.046-1.508-3.909-3.734-4.687.507-.692 1.044-1.788 1.046-2.767.002-1.231-.54-2.365-1.526-3.193-.917-.77-2.163-1.212-3.421-1.214h-.48c-.544-1.238-1.764-1.998-3.243-2h-.008c-.972 0-1.808.323-2.418.933-.611.613-.934 1.451-.936 2.428v20.999c-.003 1.976 1.378 3.357 3.359 3.361h.007c1.473 0 2.69-.76 3.238-2h.489c1.271 0 2.478-.426 3.398-1.199.977-.82 1.515-1.95 1.517-3.182.001-.995-.526-2.098-1.025-2.791 2.224-.77 3.734-2.633 3.737-4.688zM20 12.36a.64.64 0 1 1-.001 1.281A.64.64 0 0 1 20 12.36zm6.946 7.28h-2.641c-.159-.575-.681-1-1.306-1-.75 0-1.36.61-1.36 1.36s.61 1.36 1.36 1.36c.624 0 1.147-.425 1.306-1h2.533c.476.541 1.091 1.691 1.089 2.618-.001 1.016-.448 1.95-1.26 2.631-.781.657-1.865 1.01-2.943 1.03H23a.362.362 0 0 0-.339.239c-.393 1.104-1.385 1.761-2.655 1.761h-.005c-.781-.001-1.445-.252-1.919-.725S17.358 26.78 17.36 26v-8.64h2.279v6.334c-.575.159-1 .681-1 1.306 0 .75.61 1.36 1.36 1.36s1.36-.61 1.36-1.36c0-.624-.425-1.147-1-1.306V17.36h1.642c.799 0 1.356-.559 1.358-1.36v-.64h2.334c.159.575.681 1 1.306 1 .75 0 1.36-.61 1.36-1.36s-.61-1.36-1.36-1.36c-.625 0-1.147.425-1.306 1H23.36V8.805c.575-.159 1-.681 1-1.305 0-.75-.61-1.36-1.36-1.36s-1.36.61-1.36 1.36c0 .624.425 1.146 1 1.305V16c0 .401-.238.641-.638.641H17.36V5c.001-.781.252-1.445.725-1.918.397-.398.933-.627 1.555-.693v9.305c-.575.159-1 .681-1 1.305 0 .75.61 1.36 1.36 1.36s1.36-.61 1.36-1.36c0-.624-.425-1.146-1-1.305v-9.31c1.103.115 1.951.742 2.3 1.736.051.144.188.24.34.24h.724c1.092.001 2.17.383 2.959 1.045.82.689 1.271 1.626 1.269 2.641-.001.966-.714 2.209-1.205 2.699a.36.36 0 0 0 .164.604c2.198.567 3.732 2.274 3.729 4.151-.002 1.874-1.52 3.57-3.694 4.14zM23.64 20a.64.64 0 1 1-1.281-.001.64.64 0 0 1 1.281.001zM20 24.36a.64.64 0 1 1-.001 1.281A.64.64 0 0 1 20 24.36zm3-16.22a.64.64 0 1 1 .001-1.281A.64.64 0 0 1 23 8.14zM26.36 15a.64.64 0 1 1 1.281.001A.64.64 0 0 1 26.36 15z"/>
        <path fill="none" d="M0 0h32v32H0z"/>
    </g>
</svg>
